HIERARCHY
ROOT Pelvis
{
	OFFSET 0.000000 0.000000 0.000000
	CHANNELS 6 Xposition Yposition Zposition Xrotation Yrotation Zrotation
	JOINT LeftUpLeg_virtual
	{
		OFFSET 0.000000 0.000000 0.000000
		CHANNELS 3 Xrotation Yrotation Zrotation
		JOINT LeftUpLeg
		{
			OFFSET 18.735201 -5.666702 -4.541200
			CHANNELS 3 Xrotation Yrotation Zrotation
			JOINT LeftLeg
			{
				OFFSET -0.021200 -31.938179 0.493100
				CHANNELS 3 Xrotation Yrotation Zrotation
				JOINT LeftFoot
				{
					OFFSET 0.021200 -31.938179 -4.336299
					CHANNELS 3 Xrotation Yrotation Zrotation
					JOINT LeftToeBase
					{
						OFFSET 0.943001 -26.722000 15.023500
						CHANNELS 3 Xrotation Yrotation Zrotation
						End Site
						{
							OFFSET 0 0 0
						}
					}
				}
			}
		}
	}
	JOINT RightUpLeg_virtual
	{
		OFFSET 0.000000 0.000000 0.000000
		CHANNELS 3 Xrotation Yrotation Zrotation
		JOINT RightUpLeg
		{
			OFFSET -18.735201 -5.666702 -4.541200
			CHANNELS 3 Xrotation Yrotation Zrotation
			JOINT RightLeg
			{
				OFFSET 0.018946 -31.938133 0.493100
				CHANNELS 3 Xrotation Yrotation Zrotation
				JOINT RightFoot
				{
					OFFSET -0.018946 -31.938126 -4.336299
					CHANNELS 3 Xrotation Yrotation Zrotation
					JOINT RightToeBase
					{
						OFFSET -0.943001 -26.722004 15.023500
						CHANNELS 3 Xrotation Yrotation Zrotation
						End Site
						{
							OFFSET 0 0 0
						}
					}
				}
			}
		}
	}
	JOINT Hips_virtual
	{
		OFFSET 0.000000 0.000000 0.000000
		CHANNELS 3 Xrotation Yrotation Zrotation
		JOINT Hips
		{
			OFFSET -0.000000 -0.000000 -0.000000
			CHANNELS 3 Xrotation Yrotation Zrotation
			JOINT Spine
			{
				OFFSET 0.000000 10.199997 -0.299500
				CHANNELS 3 Xrotation Yrotation Zrotation
				JOINT Spine1
				{
					OFFSET 0.000000 11.900002 -1.516600
					CHANNELS 3 Xrotation Yrotation Zrotation
					JOINT Spine2
					{
						OFFSET 0.000000 13.600006 -2.842500
						CHANNELS 3 Xrotation Yrotation Zrotation
						JOINT Neck_virtual
						{
							OFFSET 0.000000 0.000000 0.000000
							CHANNELS 3 Xrotation Yrotation Zrotation
							JOINT Neck
							{
								OFFSET 0.000000 9.624100 -2.890100
								CHANNELS 3 Xrotation Yrotation Zrotation
								JOINT Head
								{
									OFFSET 0.000000 14.068802 -1.351900
									CHANNELS 3 Xrotation Yrotation Zrotation
									End Site
									{
										OFFSET 0 0 0
									}
								}
							}
						}
						JOINT LeftShoulder_virtual
						{
							OFFSET 0.000000 0.000000 0.000000
							CHANNELS 3 Xrotation Yrotation Zrotation
							JOINT LeftShoulder
							{
								OFFSET 15.263000 10.923401 -0.547700
								CHANNELS 3 Xrotation Yrotation Zrotation
								JOINT LeftArm
								{
									OFFSET 25.438599 -2.830597 -13.032500
									CHANNELS 3 Xrotation Yrotation Zrotation
									JOINT LeftForeArm
									{
										OFFSET 29.960503 0.000000 0.000000
										CHANNELS 3 Xrotation Yrotation Zrotation
										JOINT LeftHand
										{
											OFFSET 27.849251 0.000000 0.000000
											CHANNELS 3 Xrotation Yrotation Zrotation
											End Site
											{
												OFFSET 0 0 0
											}
										}
									}
								}
							}
						}
						JOINT RightShoulder_virtual
						{
							OFFSET 0.000000 0.000000 0.000000
							CHANNELS 3 Xrotation Yrotation Zrotation
							JOINT RightShoulder
							{
								OFFSET -15.263000 10.923401 -0.547700
								CHANNELS 3 Xrotation Yrotation Zrotation
								JOINT RightArm
								{
									OFFSET -25.438599 -2.830597 -13.032500
									CHANNELS 3 Xrotation Yrotation Zrotation
									JOINT RightForeArm
									{
										OFFSET -29.960503 0.000000 0.000000
										CHANNELS 3 Xrotation Yrotation Zrotation
										JOINT RightHand
										{
											OFFSET -27.849251 0.000000 0.000000
											CHANNELS 3 Xrotation Yrotation Zrotation
											End Site
											{
												OFFSET 0 0 0
											}
										}
									}
								}
							}
						}
					}
				}
			}
		}
	}
}
MOTION
Frames: 4
Frame Time: 0.03333333
-2.690670 92.334435 -50.474716 0.000000 0.000000 0.000000 168.740274 -64.269300 168.638218 -34.069824 1.756183 16.300774 43.600048 -1.776017 -2.373786 -8.212962 1.842692 -6.010987 0.000000 0.000000 0.000000 168.740274 -64.269300 168.638218 -13.761233 -12.167387 9.356456 23.049505 11.140808 1.178937 -11.756898 0.045829 -13.592267 0.000000 0.000000 0.000000 168.740274 -64.269300 168.638218 0.000000 -0.000001 0.000000 4.934220 1.777537 4.198198 -5.203247 2.467259 -3.030997 0.000000 0.000000 0.000000 -5.047561 2.231922 -3.347159 0.517468 4.690927 2.017424 0.000000 0.000000 0.000000 -5.047561 2.231922 -3.347159 1.079196 -0.344046 0.608159 7.615777 0.677542 -69.161683 8.512042 -19.175268 -8.474004 0.000000 0.000000 0.000000 -5.047561 2.231922 -3.347159 2.374283 -3.484720 16.761271 13.068528 30.203995 51.934771 13.595698 26.328832 -0.878557 0.000000 0.000000 0.000000 
-2.967309 92.342690 -51.443970 0.000000 0.000000 0.000000 169.977508 -61.367228 170.001660 -34.630043 -1.564678 14.007184 43.040563 -2.293556 -2.341400 -7.171374 2.200647 -7.191596 0.000000 0.000000 0.000000 169.977508 -61.367228 170.001660 -13.516744 -11.024882 9.754859 22.775927 13.350919 1.743031 -11.084145 -0.401593 -14.757529 0.000000 0.000000 0.000000 169.977508 -61.367228 170.001660 0.000000 0.000000 0.000000 5.162302 2.019706 4.023363 -5.105463 2.660220 -2.985251 0.000000 0.000000 0.000000 -4.948700 2.420738 -3.321704 0.524781 4.488478 2.004502 0.000000 0.000000 0.000000 -4.948700 2.420738 -3.321704 1.084987 -0.270531 0.764947 7.759413 1.002645 -69.954552 9.038371 -17.908092 -8.643468 0.000000 0.000000 0.000000 -4.948700 2.420738 -3.321704 2.402569 -3.497409 16.751802 12.583212 31.110911 52.037760 13.766161 26.236987 -1.171560 0.000000 0.000000 0.000000 
-3.248815 92.364784 -52.440460 0.000000 0.000000 0.000000 171.003348 -58.482047 171.161563 -35.099065 -5.100667 11.444811 42.038431 -2.299975 -2.249224 -6.200444 2.491513 -7.603018 0.000000 0.000000 0.000000 171.003348 -58.482047 171.161563 -13.195809 -9.893718 10.116289 22.437419 15.516942 2.301426 -10.388995 -0.831281 -15.858745 0.000000 0.000000 0.000000 171.003348 -58.482047 171.161563 0.000000 0.000002 0.000000 5.359934 2.229087 3.756753 -4.955284 2.804415 -2.879609 0.000000 0.000000 0.000000 -4.801089 2.565716 -3.228154 0.512388 4.244405 1.934537 0.000000 0.000000 0.000000 -4.801089 2.565716 -3.228154 1.090521 -0.182197 0.891429 7.710969 1.275670 -70.804589 9.524841 -16.278588 -8.901424 0.000000 0.000000 0.000000 -4.801089 2.565716 -3.228154 2.414812 -3.468812 16.571758 11.779245 32.237817 52.296518 13.724220 25.885329 -1.445379 0.000000 0.000000 0.000000 
-3.541378 92.364700 -53.442657 0.000000 0.000000 0.000000 171.860988 -55.602367 172.145110 -35.709165 -8.273924 9.296674 40.648932 -2.289223 -2.119557 -4.989002 2.795260 -8.645420 0.000000 0.000000 0.000000 171.860988 -55.602367 172.145110 -12.911744 -8.799924 10.422378 22.246537 17.632195 2.850535 -9.779567 -1.204536 -16.907700 0.000000 0.000000 0.000000 171.860988 -55.602367 172.145110 0.000000 0.000000 0.000000 5.548572 2.422218 3.454652 -4.780149 2.924335 -2.745297 0.000000 0.000000 0.000000 -4.630334 2.689124 -3.101843 0.481851 3.962432 1.827893 0.000000 0.000000 0.000000 -4.630334 2.689124 -3.101843 1.095807 -0.075117 0.979791 7.590611 1.535498 -71.647387 10.023777 -14.552003 -9.196447 0.000000 0.000000 0.000000 -4.630334 2.689124 -3.101843 2.421330 -3.425015 16.328213 10.845200 33.443881 52.653635 13.606736 25.436926 -1.713353 0.000000 0.000000 0.000000 
